<svg width="47" height="39" viewBox="0 0 47 39" fill="none" xmlns="http://www.w3.org/2000/svg">
<path d="M0.5 1H46.5V38H0.5V1Z" fill="#000100"/>
<path d="M0.5 1H46.5V38H0.5V1Z" stroke="#000100"/>
<path d="M13.5032 27H12.6632C12.3165 27 12.0432 26.9133 11.8432 26.74C11.6432 26.5533 11.5432 26.2533 11.5432 25.84C11.5432 25.7733 11.5432 25.7133 11.5432 25.66C11.5565 25.5933 11.5699 25.5333 11.5832 25.48L13.1432 14.26C13.2099 13.8067 13.3832 13.4733 13.6632 13.26C13.9432 13.0333 14.3099 12.92 14.7632 12.92H17.3032C17.7699 12.92 18.1432 13.0333 18.4232 13.26C18.7165 13.4733 18.8899 13.8067 18.9432 14.26L20.4832 25.48C20.4965 25.5467 20.5032 25.6067 20.5032 25.66C20.5165 25.7133 20.5232 25.7733 20.5232 25.84C20.5232 26.2533 20.4165 26.5533 20.2032 26.74C20.0032 26.9133 19.7365 27 19.4032 27H18.5632C18.1632 27 17.8565 26.92 17.6432 26.76C17.4432 26.5867 17.3165 26.2667 17.2632 25.8L16.9832 23.6C16.9699 23.5333 16.9365 23.5 16.8832 23.5H15.1832C15.1299 23.5 15.1032 23.5333 15.1032 23.6L14.8032 25.8C14.7499 26.2667 14.6165 26.5867 14.4032 26.76C14.2032 26.92 13.9032 27 13.5032 27ZM15.4032 20.9H16.6832C16.7232 20.9 16.7432 20.8667 16.7432 20.8C16.7432 20.7867 16.7432 20.76 16.7432 20.72C16.7432 20.68 16.7365 20.6133 16.7232 20.52L16.1632 15.64C16.1499 15.56 16.1165 15.52 16.0632 15.52H16.0032C15.9499 15.52 15.9165 15.56 15.9032 15.64L15.3432 20.54C15.3299 20.6333 15.3232 20.7 15.3232 20.74C15.3232 20.7667 15.3232 20.7867 15.3232 20.8C15.3232 20.8667 15.3499 20.9 15.4032 20.9ZM26.2182 22.32H22.3582C21.9849 22.32 21.6982 22.2533 21.4982 22.12C21.2982 21.9867 21.1982 21.7467 21.1982 21.4V21C21.1982 20.64 21.2982 20.4 21.4982 20.28C21.6982 20.1467 21.9849 20.08 22.3582 20.08H26.2182C26.6049 20.08 26.8982 20.1467 27.0982 20.28C27.2982 20.4 27.3982 20.64 27.3982 21V21.4C27.3982 21.7467 27.2982 21.9867 27.0982 22.12C26.8982 22.2533 26.6049 22.32 26.2182 22.32ZM34.1932 27H29.1932C28.3932 27 27.9932 26.6 27.9932 25.8V24.9C27.9932 24.7133 28.0065 24.54 28.0332 24.38C28.0732 24.22 28.1399 24.02 28.2332 23.78L31.6132 15.82H29.0732C28.3532 15.82 27.9932 15.4667 27.9932 14.76V13.98C27.9932 13.2733 28.3532 12.92 29.0732 12.92H34.0532C34.8532 12.92 35.2532 13.32 35.2532 14.12V15.02C35.2532 15.1933 35.2399 15.3667 35.2132 15.54C35.1865 15.7 35.1265 15.8933 35.0332 16.12L31.6332 24.08H34.1932C34.8999 24.08 35.2532 24.44 35.2532 25.16V25.94C35.2532 26.6467 34.8999 27 34.1932 27Z" fill="white"/>
</svg>
